<svg width="48" height="48" viewBox="0 0 48 48" fill="none" xmlns="http://www.w3.org/2000/svg">
<g clip-path="url(#clip0_287_18545)">
<path d="M24 48C37.2548 48 48 37.2548 48 24C48 10.7452 37.2548 0 24 0C10.7452 0 0 10.7452 0 24C0 37.2548 10.7452 48 24 48Z" fill="#DBEAFE"/>
<path d="M27.4026 19.3324C28.0132 19.1288 28.3186 19.027 28.5216 19.0994C28.6983 19.1625 28.8374 19.3015 28.9004 19.4782C28.9728 19.6813 28.871 19.9866 28.6675 20.5973L26.808 26.1756C26.7501 26.3495 26.7211 26.4365 26.6717 26.5087C26.6279 26.5726 26.5726 26.6279 26.5087 26.6717C26.4365 26.7211 26.3495 26.7501 26.1756 26.808L20.5973 28.6675C19.9866 28.871 19.6813 28.9728 19.4782 28.9004C19.3015 28.8374 19.1625 28.6983 19.0994 28.5216C19.027 28.3186 19.1288 28.0132 19.3324 27.4026L21.1918 21.8243C21.2498 21.6503 21.2788 21.5634 21.3282 21.4912C21.3719 21.4272 21.4272 21.3719 21.4912 21.3282C21.5634 21.2788 21.6503 21.2498 21.8243 21.1918L27.4026 19.3324Z" fill="#3B82F6" stroke="#3B82F6" stroke-width="0.5" stroke-linecap="round" stroke-linejoin="round"/>
<path d="M24 36.5C30.9036 36.5 36.5 30.9036 36.5 24C36.5 17.0964 30.9036 11.5 24 11.5C17.0964 11.5 11.5 17.0964 11.5 24C11.5 30.9036 17.0964 36.5 24 36.5Z" stroke="#2563EB" stroke-width="2.5" stroke-linecap="round" stroke-linejoin="round"/>
</g>
<defs>
<clipPath id="clip0_287_18545">
<rect width="48" height="48" fill="white"/>
</clipPath>
</defs>
</svg>
