<svg width="32" height="32" viewBox="0 0 32 32" fill="none" xmlns="http://www.w3.org/2000/svg">
<path d="M28.0167 12.2501C28.0167 11.7599 27.822 11.2898 27.4754 10.9431C27.1287 10.5965 26.6586 10.4018 26.1684 10.4018H22.4717L19.6992 6.70508H12.3058L9.53331 10.4018H5.83662C5.34641 10.4018 4.87628 10.5965 4.52965 10.9431C4.18302 11.2898 3.98828 11.7599 3.98828 12.2501V23.3402C3.98828 23.8304 4.18302 24.3005 4.52965 24.6471C4.87628 24.9938 5.34641 25.1885 5.83662 25.1885H26.1684C26.6586 25.1885 27.1287 24.9938 27.4754 24.6471C27.822 24.3005 28.0167 23.8304 28.0167 23.3402V12.2501Z" stroke="#DBDCDF" stroke-width="1.5" stroke-linecap="round" stroke-linejoin="round"/>
<path d="M16.0025 21.0304C18.2993 21.0304 20.1613 19.1685 20.1613 16.8717C20.1613 14.5748 18.2993 12.7129 16.0025 12.7129C13.7057 12.7129 11.8438 14.5748 11.8438 16.8717C11.8438 19.1685 13.7057 21.0304 16.0025 21.0304Z" stroke="#DBDCDF" stroke-width="1.5" stroke-linecap="round" stroke-linejoin="round"/>
</svg>
