<svg width="18" height="18" viewBox="0 0 18 18" fill="none" xmlns="http://www.w3.org/2000/svg">
<rect width="18" height="18" rx="9" fill="#64748B"/>
<path d="M7.39861 12.57L5 13L5.39977 10.5791L10.7806 5.23556C10.855 5.16092 10.9434 5.10167 11.0408 5.06125C11.1383 5.02082 11.2428 5 11.3483 5C11.4539 5 11.5584 5.02082 11.6558 5.06125C11.7532 5.10167 11.8417 5.16092 11.916 5.23556L12.7635 6.07969C12.8384 6.15373 12.8979 6.2418 12.9385 6.33885C12.9791 6.43589 13 6.53998 13 6.6451C13 6.75023 12.9791 6.85432 12.9385 6.95136C12.8979 7.04841 12.8384 7.13648 12.7635 7.21052L7.39861 12.57Z" fill="white"/>
</svg>
