<svg width="46" height="46" viewBox="0 0 46 46" fill="none" xmlns="http://www.w3.org/2000/svg">
<g clip-path="url(#clip0_814_32354)">
<path d="M43.8936 16.5711C43.8936 15.7186 43.555 14.901 42.9522 14.2982C42.3494 13.6954 41.5318 13.3568 40.6793 13.3568H34.2508L29.4293 6.92822H16.5722L11.7508 13.3568H5.3222C4.46971 13.3568 3.65215 13.6954 3.04935 14.2982C2.44656 14.901 2.10791 15.7186 2.10791 16.5711V35.8568C2.10791 36.7093 2.44656 37.5268 3.04935 38.1296C3.65215 38.7324 4.46971 39.0711 5.3222 39.0711H40.6793C41.5318 39.0711 42.3494 38.7324 42.9522 38.1296C43.555 37.5268 43.8936 36.7093 43.8936 35.8568V16.5711Z" stroke="#94A3B8" stroke-width="3.75" stroke-linecap="round" stroke-linejoin="round"/>
<path d="M23.0007 31.8393C26.9949 31.8393 30.2328 28.6013 30.2328 24.6071C30.2328 20.6129 26.9949 17.375 23.0007 17.375C19.0065 17.375 15.7686 20.6129 15.7686 24.6071C15.7686 28.6013 19.0065 31.8393 23.0007 31.8393Z" stroke="#94A3B8" stroke-width="3.75" stroke-linecap="round" stroke-linejoin="round"/>
</g>
<defs>
<clipPath id="clip0_814_32354">
<rect width="45" height="45" fill="white" transform="translate(0.5 0.5)"/>
</clipPath>
</defs>
</svg>
