<svg width="32" height="32" viewBox="0 0 32 32" fill="none" xmlns="http://www.w3.org/2000/svg">
<path d="M12.3859 8.07895L13.1424 6.12602C13.27 5.79536 13.4945 5.51095 13.7864 5.31003C14.0784 5.10911 14.4242 5.00105 14.7786 5H16.2214C16.5758 5.00105 16.9216 5.10911 17.2136 5.31003C17.5055 5.51095 17.73 5.79536 17.8576 6.12602L18.6141 8.07895L21.1829 9.55685L23.259 9.24016C23.6047 9.19324 23.9565 9.25014 24.2698 9.40365C24.583 9.55715 24.8436 9.80033 25.0184 10.1023L25.7221 11.3338C25.9025 11.6406 25.9855 11.9948 25.9604 12.3498C25.9353 12.7047 25.8031 13.0437 25.5814 13.322L24.297 14.9582V17.914L25.6166 19.5503C25.8383 19.8285 25.9705 20.1675 25.9956 20.5225C26.0207 20.8774 25.9376 21.2316 25.7573 21.5384L25.0536 22.77C24.8788 23.0719 24.6182 23.3151 24.305 23.4686C23.9917 23.6221 23.6398 23.679 23.2942 23.6321L21.2181 23.3154L18.6493 24.7933L17.8928 26.7462C17.7652 27.0769 17.5407 27.3613 17.2488 27.5622C16.9568 27.7631 16.611 27.8712 16.2565 27.8722H14.7786C14.4242 27.8712 14.0784 27.7631 13.7864 27.5622C13.4945 27.3613 13.27 27.0769 13.1424 26.7462L12.3859 24.7933L9.81713 23.3154L7.74104 23.6321C7.39534 23.679 7.04351 23.6221 6.73023 23.4686C6.41695 23.3151 6.15639 23.0719 5.98164 22.77L5.27788 21.5384C5.09754 21.2316 5.01445 20.8774 5.03958 20.5225C5.06471 20.1675 5.19687 19.8285 5.41863 19.5503L6.70299 17.914V14.9582L5.38344 13.322C5.16169 13.0437 5.02952 12.7047 5.00439 12.3498C4.97926 11.9948 5.06235 11.6406 5.24269 11.3338L5.94645 10.1023C6.1212 9.80033 6.38177 9.55715 6.69504 9.40365C7.00832 9.25014 7.36016 9.19324 7.70585 9.24016L9.78194 9.55685L12.3859 8.07895Z" stroke="#222222" stroke-width="1.7" stroke-linecap="round" stroke-linejoin="round"/>
<path d="M15.4999 21.7141C18.415 21.7141 20.7781 19.351 20.7781 16.4359C20.7781 13.5208 18.415 11.1577 15.4999 11.1577C12.5848 11.1577 10.2217 13.5208 10.2217 16.4359C10.2217 19.351 12.5848 21.7141 15.4999 21.7141Z" stroke="#222222" stroke-width="1.7" stroke-linecap="round" stroke-linejoin="round"/>
</svg>
