<svg width="20" height="20" viewBox="0 0 20 20" fill="none" xmlns="http://www.w3.org/2000/svg">
<path d="M10.6522 3.65268L12.2808 6.94049C12.3178 7.02394 12.3761 7.09623 12.4497 7.15014C12.5234 7.20405 12.61 7.23771 12.7007 7.24776L16.2958 7.78037C16.3999 7.79375 16.498 7.83647 16.5787 7.90354C16.6595 7.97061 16.7194 8.05926 16.7517 8.15915C16.7839 8.25903 16.787 8.36601 16.7607 8.46761C16.7344 8.56921 16.6797 8.66123 16.6031 8.73291L14.0117 11.3038C13.9456 11.3655 13.896 11.4429 13.8673 11.5288C13.8387 11.6146 13.832 11.7063 13.8478 11.7954L14.4726 15.411C14.4907 15.5148 14.4793 15.6217 14.4396 15.7194C14.4 15.8172 14.3337 15.9018 14.2483 15.9637C14.1629 16.0256 14.0619 16.0623 13.9567 16.0696C13.8515 16.0769 13.7464 16.0545 13.6532 16.005L10.4166 14.2945C10.3338 14.2538 10.2427 14.2327 10.1503 14.2327C10.058 14.2327 9.96692 14.2538 9.88404 14.2945L6.64744 16.005C6.55433 16.0545 6.44919 16.0769 6.34399 16.0696C6.23879 16.0623 6.13775 16.0256 6.05238 15.9637C5.967 15.9018 5.90071 15.8172 5.86106 15.7194C5.8214 15.6217 5.80996 15.5148 5.82805 15.411L6.45284 11.7544C6.46867 11.6653 6.46198 11.5736 6.43335 11.4878C6.40473 11.4019 6.3551 11.3246 6.28896 11.2628L3.66691 8.73291C3.58933 8.65927 3.53478 8.5647 3.50986 8.46068C3.48493 8.35666 3.4907 8.24765 3.52647 8.14684C3.56224 8.04603 3.62648 7.95776 3.71139 7.89272C3.79631 7.82767 3.89826 7.78865 4.00491 7.78037L7.59999 7.24776C7.69073 7.23771 7.77726 7.20405 7.85094 7.15014C7.92462 7.09623 7.98289 7.02394 8.01993 6.94049L9.64847 3.65268C9.69282 3.55693 9.76363 3.47585 9.85256 3.41904C9.94149 3.36222 10.0448 3.33203 10.1503 3.33203C10.2559 3.33203 10.3592 3.36222 10.4481 3.41904C10.5371 3.47585 10.6079 3.55693 10.6522 3.65268Z" fill="#2563EB" stroke="#2563EB" stroke-linecap="round" stroke-linejoin="round"/>
</svg>
