<svg width="124" height="36" viewBox="0 0 124 36" fill="none" xmlns="http://www.w3.org/2000/svg">
<path d="M120.332 19.6845C120.332 27.7407 115.184 32.1199 108.633 32.1199C102.014 32.1199 96.8992 27.7073 96.8992 19.6845C96.8992 11.6283 102.014 7.24918 108.633 7.24918C115.184 7.24918 120.332 11.6283 120.332 19.6845ZM113.78 19.6845C113.78 15.2385 111.942 12.7983 108.633 12.7983C105.29 12.7983 103.451 15.2385 103.451 19.6845C103.451 24.1305 105.29 26.5708 108.633 26.5708C111.942 26.5708 113.78 24.1305 113.78 19.6845Z" fill="#2563EB"/>
<path d="M87.1715 15.5394C86.737 13.8011 85.2995 12.7983 83.1601 12.7983C79.7839 12.7983 77.8116 15.3388 77.8116 19.6511C77.8116 23.9968 79.6502 26.5708 83.1267 26.5708C86.152 26.5708 87.6897 25.15 87.7398 22.8936H83.2604V18.3474H93.8906V21.6568C93.8906 28.2422 89.3778 32.1199 83.0598 32.1199C76.0399 32.1199 71.2596 27.373 71.2596 19.7179C71.2596 11.762 76.5079 7.24918 83.0264 7.24918C88.7092 7.24918 93.0883 10.6923 93.6232 15.5394H87.1715Z" fill="#2563EB"/>
<path d="M40.8398 31.7856V7.58345H58.1223V12.7314H47.1912V17.1105H57.2197V22.2585H47.1912V26.6376H58.0889V31.7856H40.8398Z" fill="#2563EB"/>
<path d="M10.7878 31.7856L3.6676 7.58345H10.7544L14.1641 22.7265H14.3647L18.3426 7.58345H23.9586L27.97 22.7933H28.1706L31.5803 7.58345H38.6671L31.5468 31.7856H25.4294L21.2509 17.9462H21.0503L16.8718 31.7856H10.7878Z" fill="#2563EB"/>
<circle cx="64.1824" cy="6.72388" r="3.0563" fill="#93C5FD"/>
</svg>
