<svg width="48" height="48" viewBox="0 0 48 48" fill="none" xmlns="http://www.w3.org/2000/svg">
<path d="M7.72386 42.7144L39.8777 42.7144C41.4921 42.7144 42.8008 41.4056 42.8008 39.7913L42.8008 7.63743C42.8008 6.02306 41.4921 4.71436 39.8777 4.71436L7.72386 4.71436C6.10949 4.71436 4.80078 6.02306 4.80078 7.63743L4.80078 39.7913C4.80078 41.4056 6.10949 42.7144 7.72386 42.7144Z" fill="#E5E7EB" stroke="#E5E7EB" stroke-width="2.4" stroke-linecap="round" stroke-linejoin="round"/>
<path d="M13.4863 18C15.1432 18 16.4863 16.6569 16.4863 15C16.4863 13.3431 15.1432 12 13.4863 12C11.8295 12 10.4863 13.3431 10.4863 15C10.4863 16.6569 11.8295 18 13.4863 18Z" fill="#D1D5DB" stroke="#D1D5DB" stroke-width="2.4" stroke-linecap="round" stroke-linejoin="round"/>
<path opacity="0.7" fill-rule="evenodd" clip-rule="evenodd" d="M32.0076 23.4585C31.0598 22.0138 28.942 22.0138 27.9943 23.4585L21.3717 33.5525L19.499 30.7413C18.7866 29.6719 17.2153 29.6719 16.5029 30.7413L12.0706 37.3946C11.2737 38.5909 12.1313 40.1926 13.5686 40.1926H21.2626C21.326 40.1974 21.3903 40.1999 21.4556 40.1999H38.5463C40.4552 40.1999 41.6001 38.0794 40.553 36.4834L32.0076 23.4585Z" fill="#9CA3AF"/>
</svg>
