<svg width="36" height="36" viewBox="0 0 36 36" fill="none" xmlns="http://www.w3.org/2000/svg">
<g clip-path="url(#clip0_870_12483)">
<path d="M18 36C27.9411 36 36 27.9411 36 18C36 8.05888 27.9411 0 18 0C8.05888 0 0 8.05888 0 18C0 27.9411 8.05888 36 18 36Z" fill="#F3F4F6"/>
<path d="M11.25 19.5C12.0784 19.5 12.75 18.8284 12.75 18C12.75 17.1716 12.0784 16.5 11.25 16.5C10.4216 16.5 9.75 17.1716 9.75 18C9.75 18.8284 10.4216 19.5 11.25 19.5Z" fill="#9CA3AF"/>
<path d="M18.241 19.5C19.0694 19.5 19.741 18.8284 19.741 18C19.741 17.1716 19.0694 16.5 18.241 16.5C17.4125 16.5 16.741 17.1716 16.741 18C16.741 18.8284 17.4125 19.5 18.241 19.5Z" fill="#9CA3AF"/>
<path d="M25.2319 19.5C26.0604 19.5 26.7319 18.8284 26.7319 18C26.7319 17.1716 26.0604 16.5 25.2319 16.5C24.4035 16.5 23.7319 17.1716 23.7319 18C23.7319 18.8284 24.4035 19.5 25.2319 19.5Z" fill="#9CA3AF"/>
</g>
<defs>
<clipPath id="clip0_870_12483">
<rect width="36" height="36" fill="white"/>
</clipPath>
</defs>
</svg>
