<svg width="20" height="20" viewBox="0 0 20 20" fill="none" xmlns="http://www.w3.org/2000/svg">
<g id="ic/star_20px">
<path id="Vector" d="M10.6522 3.65268L12.2807 6.94049C12.3178 7.02394 12.376 7.09623 12.4497 7.15014C12.5234 7.20405 12.6099 7.23771 12.7007 7.24776L16.2957 7.78037C16.3998 7.79375 16.498 7.83647 16.5787 7.90354C16.6594 7.97061 16.7194 8.05926 16.7516 8.15915C16.7838 8.25903 16.787 8.36601 16.7607 8.46761C16.7344 8.56921 16.6797 8.66123 16.603 8.73291L14.0117 11.3038C13.9456 11.3655 13.8959 11.4429 13.8673 11.5288C13.8387 11.6146 13.832 11.7063 13.8478 11.7954L14.4726 15.411C14.4907 15.5148 14.4793 15.6217 14.4396 15.7194C14.3999 15.8172 14.3337 15.9018 14.2483 15.9637C14.1629 16.0256 14.0619 16.0623 13.9567 16.0696C13.8515 16.0769 13.7463 16.0545 13.6532 16.005L10.4166 14.2945C10.3337 14.2538 10.2426 14.2327 10.1503 14.2327C10.058 14.2327 9.96689 14.2538 9.88401 14.2945L6.64741 16.005C6.5543 16.0545 6.44916 16.0769 6.34396 16.0696C6.23876 16.0623 6.13772 16.0256 6.05235 15.9637C5.96697 15.9018 5.90068 15.8172 5.86102 15.7194C5.82137 15.6217 5.80993 15.5148 5.82802 15.411L6.45281 11.7544C6.46864 11.6653 6.46195 11.5736 6.43332 11.4878C6.4047 11.4019 6.35507 11.3246 6.28893 11.2628L3.66688 8.73291C3.5893 8.65927 3.53475 8.5647 3.50982 8.46068C3.4849 8.35666 3.49067 8.24765 3.52644 8.14684C3.56221 8.04603 3.62644 7.95776 3.71136 7.89272C3.79628 7.82767 3.89823 7.78865 4.00488 7.78037L7.59996 7.24776C7.6907 7.23771 7.77723 7.20405 7.85091 7.15014C7.92459 7.09623 7.98286 7.02394 8.0199 6.94049L9.64844 3.65268C9.69278 3.55693 9.7636 3.47585 9.85253 3.41904C9.94146 3.36222 10.0448 3.33203 10.1503 3.33203C10.2558 3.33203 10.3592 3.36222 10.4481 3.41904C10.537 3.47585 10.6078 3.55693 10.6522 3.65268Z" fill="#2563EB" stroke="#2563EB" stroke-linecap="round" stroke-linejoin="round"/>
</g>
</svg>
