<svg width="32" height="32" viewBox="0 0 32 32" fill="none" xmlns="http://www.w3.org/2000/svg">
<path d="M28.1962 11.5325C28.1962 11.035 27.9986 10.5578 27.6468 10.206C27.295 9.85422 26.8179 9.65658 26.3203 9.65658H22.5685L19.7547 5.90479H12.2511L9.43726 9.65658H5.68547C5.18795 9.65658 4.71081 9.85422 4.35901 10.206C4.00721 10.5578 3.80957 11.035 3.80957 11.5325V22.7879C3.80957 23.2854 4.00721 23.7625 4.35901 24.1143C4.71081 24.4661 5.18795 24.6638 5.68547 24.6638H26.3203C26.8179 24.6638 27.295 24.4661 27.6468 24.1143C27.9986 23.7625 28.1962 23.2854 28.1962 22.7879V11.5325Z" fill="#9CA3AF" stroke="#9CA3AF" stroke-width="1.5" stroke-linecap="round" stroke-linejoin="round"/>
<path d="M16.002 20.4425C18.3331 20.4425 20.2228 18.5528 20.2228 16.2217C20.2228 13.8907 18.3331 12.001 16.002 12.001C13.671 12.001 11.7812 13.8907 11.7812 16.2217C11.7812 18.5528 13.671 20.4425 16.002 20.4425Z" fill="#DBDCDF"/>
</svg>
