<svg width="24" height="24" viewBox="0 0 24 24" fill="none" xmlns="http://www.w3.org/2000/svg">
<path d="M6.5715 12.8569C7.04489 12.8569 7.42864 12.4731 7.42864 11.9997C7.42864 11.5263 7.04489 11.1426 6.5715 11.1426C6.09811 11.1426 5.71436 11.5263 5.71436 11.9997C5.71436 12.4731 6.09811 12.8569 6.5715 12.8569Z" fill="white" stroke="white" stroke-linecap="round" stroke-linejoin="round"/>
<path d="M12.1429 12.8569C12.6163 12.8569 13.0001 12.4731 13.0001 11.9997C13.0001 11.5263 12.6163 11.1426 12.1429 11.1426C11.6695 11.1426 11.2858 11.5263 11.2858 11.9997C11.2858 12.4731 11.6695 12.8569 12.1429 12.8569Z" fill="white" stroke="white" stroke-linecap="round" stroke-linejoin="round"/>
<path d="M17.7143 12.8569C18.1877 12.8569 18.5715 12.4731 18.5715 11.9997C18.5715 11.5263 18.1877 11.1426 17.7143 11.1426C17.2409 11.1426 16.8572 11.5263 16.8572 11.9997C16.8572 12.4731 17.2409 12.8569 17.7143 12.8569Z" fill="white" stroke="white" stroke-linecap="round" stroke-linejoin="round"/>
<path d="M12 0.856936C9.98445 0.857563 8.00677 1.40489 6.27765 2.44062C4.54853 3.47634 3.13272 4.96168 2.18101 6.73844C1.2293 8.51519 0.777345 10.5168 0.873274 12.5301C0.969202 14.5434 1.60942 16.493 2.72575 18.1712L0.857178 23.1427L7.11432 22.0112C8.62102 22.7475 10.2745 23.1342 11.9514 23.1425C13.6284 23.1508 15.2856 22.7805 16.7995 22.0592C18.3134 21.3379 19.645 20.2841 20.695 18.9766C21.745 17.669 22.4863 16.1413 22.8637 14.5073C23.241 12.8733 23.2447 11.1753 22.8745 9.53967C22.5043 7.90407 21.7696 6.37314 20.7253 5.06099C19.6811 3.74884 18.3541 2.68932 16.8433 1.9614C15.3326 1.23348 13.677 0.855946 12 0.856936V0.856936Z" stroke="white" stroke-width="1.5" stroke-linecap="round" stroke-linejoin="round"/>
</svg>
