<svg width="20" height="20" viewBox="0 0 20 20" fill="none" xmlns="http://www.w3.org/2000/svg">
<path d="M10.1487 2.0835C8.74363 2.08393 7.36496 2.46548 6.15956 3.18751C4.95416 3.90953 3.96717 4.94499 3.30372 6.18359C2.64027 7.42219 2.32521 8.81756 2.39208 10.2211C2.45217 11.4822 2.81864 12.7075 3.457 13.792C3.59292 14.0229 3.62761 14.3022 3.53334 14.553L2.89748 16.2447C2.66985 16.8504 3.18914 17.4731 3.82582 17.358L6.47405 16.8791C6.64866 16.8475 6.82821 16.8738 6.99028 16.9461C7.97297 17.3842 9.03694 17.6138 10.1148 17.6191C11.2839 17.6249 12.4391 17.3668 13.4945 16.8639C14.5499 16.3611 15.4782 15.6265 16.2101 14.715C16.9421 13.8034 17.4589 12.7385 17.722 11.5994C17.985 10.4603 17.9876 9.27658 17.7295 8.13637C17.4714 6.99617 16.9593 5.92894 16.2313 5.01421C15.5033 4.09949 14.5783 3.36088 13.5251 2.85344C12.4719 2.34599 11.3178 2.08281 10.1487 2.0835Z" fill="#2563EB"/>
<path d="M6.2015 10.8337C6.66173 10.8337 7.03483 10.4606 7.03483 10.0003C7.03483 9.54009 6.66173 9.16699 6.2015 9.16699C5.74126 9.16699 5.36816 9.54009 5.36816 10.0003C5.36816 10.4606 5.74126 10.8337 6.2015 10.8337Z" fill="white"/>
<path d="M10.0863 10.8337C10.5465 10.8337 10.9196 10.4606 10.9196 10.0003C10.9196 9.54009 10.5465 9.16699 10.0863 9.16699C9.62603 9.16699 9.25293 9.54009 9.25293 10.0003C9.25293 10.4606 9.62603 10.8337 10.0863 10.8337Z" fill="white"/>
<path d="M13.9691 10.8337C14.4293 10.8337 14.8024 10.4606 14.8024 10.0003C14.8024 9.54009 14.4293 9.16699 13.9691 9.16699C13.5088 9.16699 13.1357 9.54009 13.1357 10.0003C13.1357 10.4606 13.5088 10.8337 13.9691 10.8337Z" fill="white"/>
</svg>
