<svg width="24" height="24" viewBox="0 0 24 24" fill="none" xmlns="http://www.w3.org/2000/svg">
<g clip-path="url(#clip0_902_4951)">
<path d="M12.0003 0.856936C9.98469 0.857563 8.00702 1.40489 6.27789 2.44062C4.54877 3.47634 3.13296 4.96168 2.18125 6.73844C1.22955 8.51519 0.777589 10.5168 0.873518 12.5301C0.969446 14.5434 1.60967 16.493 2.72599 18.1712L0.857422 23.1427L7.11456 22.0112C8.62126 22.7475 10.2747 23.1342 11.9517 23.1425C13.6286 23.1508 15.2858 22.7805 16.7998 22.0592C18.3137 21.3379 19.6453 20.2841 20.6952 18.9766C21.7452 17.669 22.4865 16.1413 22.8639 14.5073C23.2413 12.8733 23.245 11.1753 22.8747 9.53967C22.5045 7.90407 21.7699 6.37314 20.7256 5.06099C19.6813 3.74884 18.3543 2.68932 16.8436 1.9614C15.3328 1.23348 13.6773 0.855946 12.0003 0.856936Z" fill="white" stroke="white" stroke-width="1.5" stroke-linecap="round" stroke-linejoin="round"/>
<path d="M6.57199 12.8569C7.04537 12.8569 7.42913 12.4731 7.42913 11.9997C7.42913 11.5263 7.04537 11.1426 6.57199 11.1426C6.0986 11.1426 5.71484 11.5263 5.71484 11.9997C5.71484 12.4731 6.0986 12.8569 6.57199 12.8569Z" fill="#222222" stroke="#222222" stroke-linecap="round" stroke-linejoin="round"/>
<path d="M12.1433 12.8569C12.6167 12.8569 13.0004 12.4731 13.0004 11.9997C13.0004 11.5263 12.6167 11.1426 12.1433 11.1426C11.6699 11.1426 11.2861 11.5263 11.2861 11.9997C11.2861 12.4731 11.6699 12.8569 12.1433 12.8569Z" fill="#222222" stroke="#222222" stroke-linecap="round" stroke-linejoin="round"/>
<path d="M17.7146 12.8569C18.188 12.8569 18.5717 12.4731 18.5717 11.9997C18.5717 11.5263 18.188 11.1426 17.7146 11.1426C17.2412 11.1426 16.8574 11.5263 16.8574 11.9997C16.8574 12.4731 17.2412 12.8569 17.7146 12.8569Z" fill="#222222" stroke="#222222" stroke-linecap="round" stroke-linejoin="round"/>
</g>
<defs>
<clipPath id="clip0_902_4951">
<rect width="24" height="24" fill="white"/>
</clipPath>
</defs>
</svg>
