<svg width="48" height="48" viewBox="0 0 48 48" fill="none" xmlns="http://www.w3.org/2000/svg">
<path d="M24.3577 5C20.9855 5.00105 17.6767 5.91677 14.7837 7.64963C11.8908 9.38248 9.522 11.8676 7.92972 14.8402C6.33744 17.8129 5.58128 21.1617 5.74177 24.5302C5.88599 27.557 6.76552 30.4977 8.29758 33.1003C8.6238 33.6545 8.70704 34.3249 8.48079 34.9268L6.95475 38.987C6.40842 40.4405 7.65473 41.935 9.18274 41.6587L15.5385 40.5095C15.9576 40.4337 16.3885 40.4968 16.7774 40.6702C19.1359 41.7217 21.6894 42.2727 24.2764 42.2856C27.0821 42.2994 29.8547 41.6799 32.3876 40.4731C34.9205 39.2662 37.1484 37.5033 38.9051 35.3156C40.6618 33.1279 41.9021 30.5719 42.5335 27.8381C43.1648 25.1044 43.171 22.2634 42.5516 19.5269C41.9321 16.7904 40.703 14.2291 38.9559 12.0337C37.2087 9.83839 34.9886 8.06572 32.461 6.84786C29.9334 5.62999 27.1635 4.99835 24.3577 5Z" fill="#E5E7EB"/>
<path d="M14.8848 26C15.9893 26 16.8848 25.1046 16.8848 24C16.8848 22.8954 15.9893 22 14.8848 22C13.7802 22 12.8848 22.8954 12.8848 24C12.8848 25.1046 13.7802 26 14.8848 26Z" fill="#9CA3AF"/>
<path d="M24.207 26C25.3116 26 26.207 25.1046 26.207 24C26.207 22.8954 25.3116 22 24.207 22C23.1025 22 22.207 22.8954 22.207 24C22.207 25.1046 23.1025 26 24.207 26Z" fill="#9CA3AF"/>
<path d="M33.5273 26C34.6319 26 35.5273 25.1046 35.5273 24C35.5273 22.8954 34.6319 22 33.5273 22C32.4228 22 31.5273 22.8954 31.5273 24C31.5273 25.1046 32.4228 26 33.5273 26Z" fill="#9CA3AF"/>
</svg>
