<svg width="14" height="14" viewBox="0 0 14 14" fill="none" xmlns="http://www.w3.org/2000/svg">
<g id="Group">
<path id="Vector" d="M1.5 2.5C1.23478 2.5 0.98043 2.60536 0.792893 2.79289C0.605357 2.98043 0.5 3.23478 0.5 3.5V12.5C0.5 12.7652 0.605357 13.0196 0.792893 13.2071C0.98043 13.3946 1.23478 13.5 1.5 13.5H12.5C12.7652 13.5 13.0196 13.3946 13.2071 13.2071C13.3946 13.0196 13.5 12.7652 13.5 12.5V3.5C13.5 3.23478 13.3946 2.98043 13.2071 2.79289C13.0196 2.60536 12.7652 2.5 12.5 2.5H10.5" stroke="#6B7280" stroke-linecap="round" stroke-linejoin="round"/>
<path id="Vector_2" d="M3.47998 0.5V2.5" stroke="#6B7280" stroke-linecap="round" stroke-linejoin="round"/>
<path id="Vector_3" d="M10.48 0.5V2.5" stroke="#6B7280" stroke-linecap="round" stroke-linejoin="round"/>
<rect id="Rectangle 6314" x="1" y="2.5" width="12" height="4" fill="#6B7280"/>
</g>
</svg>
