<svg width="75" height="75" viewBox="0 0 75 75" fill="none" xmlns="http://www.w3.org/2000/svg">
<path d="M37.1257 62.8237C38.7037 62.8237 39.9828 61.5445 39.9828 59.9665C39.9828 58.3886 38.7037 57.1094 37.1257 57.1094C35.5477 57.1094 34.2686 58.3886 34.2686 59.9665C34.2686 61.5445 35.5477 62.8237 37.1257 62.8237Z" fill="#FEF2F2"/>
<path d="M42.2113 3.1088C41.7317 2.17279 41.0032 1.38727 40.1059 0.838757C39.2086 0.29024 38.1773 0 37.1256 0C36.0739 0 35.0426 0.29024 34.1452 0.838757C33.2479 1.38727 32.5194 2.17279 32.0399 3.1088L0.611279 65.9659C0.172937 66.8358 -0.0357602 67.8033 0.0050076 68.7765C0.0457754 69.7498 0.334655 70.6964 0.844211 71.5266C1.35377 72.3568 2.06708 73.0429 2.91642 73.5199C3.76576 73.9968 4.72291 74.2487 5.69699 74.2517H68.5541C69.5282 74.2487 70.4854 73.9968 71.3347 73.5199C72.184 73.0429 72.8974 72.3568 73.4069 71.5266C73.9165 70.6964 74.2054 69.7498 74.2461 68.7765C74.2869 67.8033 74.0782 66.8358 73.6398 65.9659L42.2113 3.1088Z" fill="#FEF2F2"/>
<path d="M37.125 28.7754V46.9499" stroke="#F87171" stroke-width="5" stroke-linecap="round" stroke-linejoin="round"/>
<path d="M37.267 61.1141C39.1862 61.1141 40.742 59.5583 40.742 57.6391C40.742 55.7199 39.1862 54.1641 37.267 54.1641C35.3478 54.1641 33.792 55.7199 33.792 57.6391C33.792 59.5583 35.3478 61.1141 37.267 61.1141Z" fill="#F87171"/>
</svg>
