<svg width="32" height="32" viewBox="0 0 32 32" fill="none" xmlns="http://www.w3.org/2000/svg">
<path d="M6.66602 10.6123H19.2635" stroke="#222222" stroke-width="2" stroke-linecap="round" stroke-linejoin="round"/>
<path d="M22.2637 13.5C23.9205 13.5 25.2637 12.1569 25.2637 10.5C25.2637 8.84315 23.9205 7.5 22.2637 7.5C20.6068 7.5 19.2637 8.84315 19.2637 10.5C19.2637 12.1569 20.6068 13.5 22.2637 13.5Z" stroke="#222222" stroke-width="2" stroke-linecap="round" stroke-linejoin="round"/>
<path d="M25 21.5L18 21.5" stroke="#222222" stroke-width="2" stroke-linecap="round" stroke-linejoin="round"/>
<path d="M11.705 21.5H6.66602" stroke="#222222" stroke-width="2" stroke-linecap="round" stroke-linejoin="round"/>
<path d="M14.7051 24.5C16.3619 24.5 17.7051 23.1569 17.7051 21.5C17.7051 19.8431 16.3619 18.5 14.7051 18.5C13.0482 18.5 11.7051 19.8431 11.7051 21.5C11.7051 23.1569 13.0482 24.5 14.7051 24.5Z" stroke="#222222" stroke-width="2" stroke-linecap="round" stroke-linejoin="round"/>
</svg>
