<svg width="16" height="16" viewBox="0 0 16 16" fill="none" xmlns="http://www.w3.org/2000/svg">
<rect width="16" height="16" rx="2" fill="black" fill-opacity="0.7"/>
<path d="M9.99461 3H3.73627C3.32964 3 3 3.32964 3 3.73627V9.99461C3 10.4012 3.32964 10.7309 3.73627 10.7309H9.99461C10.4012 10.7309 10.7309 10.4012 10.7309 9.99461V3.73627C10.7309 3.32964 10.4012 3 9.99461 3Z" fill="white" stroke="white" stroke-width="0.858987" stroke-linecap="round" stroke-linejoin="round"/>
<path d="M4.27668 5.57778C4.61583 5.57778 4.89076 5.30284 4.89076 4.96369C4.89076 4.62454 4.61583 4.34961 4.27668 4.34961C3.93753 4.34961 3.6626 4.62454 3.6626 4.96369C3.6626 5.30284 3.93753 5.57778 4.27668 5.57778Z" fill="#9CA3AF" stroke="#9CA3AF" stroke-width="0.429493" stroke-linecap="round" stroke-linejoin="round"/>
<path opacity="0.7" fill-rule="evenodd" clip-rule="evenodd" d="M8.20366 6.75429C7.99147 6.43086 7.51733 6.43086 7.30514 6.75429L5.98811 8.76171L5.74523 8.39711C5.53256 8.07788 5.06353 8.07788 4.85086 8.39711L4.25901 9.28554C4.02113 9.64263 4.27712 10.1208 4.70619 10.1208H5.8899C5.92286 10.1208 5.9548 10.1179 5.98557 10.1126C6.01919 10.1191 6.05423 10.1225 6.09051 10.1225H9.41829C9.84566 10.1225 10.102 9.64772 9.86755 9.2904L8.20366 6.75429Z" fill="#6B7280"/>
<path d="M12.5717 5.2085V11.835C12.5717 12.0302 12.4942 12.2175 12.3561 12.3556C12.218 12.4937 12.0307 12.5712 11.8355 12.5712H5.20898" stroke="white" stroke-width="0.858987" stroke-linecap="round" stroke-linejoin="round"/>
</svg>
