<svg width="32" height="32" viewBox="0 0 32 32" fill="none" xmlns="http://www.w3.org/2000/svg">
<path d="M20 21.8462V23.6154C20 23.9826 19.8127 24.3348 19.4793 24.5945C19.1459 24.8541 18.6937 25 18.2222 25H5.77778C5.30628 25 4.8541 24.8541 4.5207 24.5945C4.1873 24.3348 4 23.9826 4 23.6154V8.38462C4 8.01739 4.1873 7.66521 4.5207 7.40554C4.8541 7.14588 5.30628 7 5.77778 7H18.2222C18.6937 7 19.1459 7.14588 19.4793 7.40554C19.8127 7.66521 20 8.01739 20 8.38462V10.1538" stroke="#222222" stroke-width="2" stroke-linecap="round" stroke-linejoin="round"/>
<path d="M15.6152 15.5H27.9998" stroke="#222222" stroke-width="2" stroke-linecap="round" stroke-linejoin="round"/>
<path d="M24.4619 11.9614L28.0004 15.4999L24.4619 19.0383" stroke="#222222" stroke-width="2" stroke-linecap="round" stroke-linejoin="round"/>
</svg>
