<svg width="18" height="18" viewBox="0 0 18 18" fill="none" xmlns="http://www.w3.org/2000/svg">
<path d="M13.8401 7.08997C13.8401 9.76808 9.00012 16.2321 9.00012 16.2321C9.00012 16.2321 4.16016 9.76808 4.16016 7.08997C4.16016 5.80633 4.67008 4.57526 5.57775 3.66759C6.48542 2.75992 7.71648 2.25 9.00012 2.25C10.2838 2.25 11.5148 2.75992 12.4225 3.66759C13.3302 4.57526 13.8401 5.80633 13.8401 7.08997Z" fill="#878A92" stroke="#878A92" stroke-linecap="round" stroke-linejoin="round"/>
<path d="M9.00016 8.70321C9.89118 8.70321 10.6135 7.9809 10.6135 7.08988C10.6135 6.19887 9.89118 5.47656 9.00016 5.47656C8.10915 5.47656 7.38684 6.19887 7.38684 7.08988C7.38684 7.9809 8.10915 8.70321 9.00016 8.70321Z" fill="white" stroke="white" stroke-linecap="round" stroke-linejoin="round"/>
</svg>
