<svg width="80" height="32" viewBox="0 0 80 32" fill="none" xmlns="http://www.w3.org/2000/svg">
<path d="M75 16.5C75 21.3589 71.9112 24 67.9799 24C64.0086 24 60.9398 21.3387 60.9398 16.5C60.9398 11.6411 64.0086 9 67.9799 9C71.9112 9 75 11.6411 75 16.5ZM71.0688 16.5C71.0688 13.8185 69.9656 12.3468 67.9799 12.3468C65.9742 12.3468 64.8711 13.8185 64.8711 16.5C64.8711 19.1815 65.9742 20.6532 67.9799 20.6532C69.9656 20.6532 71.0688 19.1815 71.0688 16.5Z" fill="white"/>
<path d="M55.1032 14C54.8424 12.9516 53.98 12.3468 52.6963 12.3468C50.6705 12.3468 49.4871 13.879 49.4871 16.4798C49.4871 19.1008 50.5903 20.6532 52.6763 20.6532C54.4914 20.6532 55.4141 19.7964 55.4442 18.4355H52.7565V15.6935H59.1347V17.6895C59.1347 21.6613 56.427 24 52.6361 24C48.4241 24 45.5559 21.1371 45.5559 16.5202C45.5559 11.7218 48.7049 9 52.6161 9C56.0258 9 58.6533 11.0766 58.9742 14H55.1032Z" fill="white"/>
<path d="M43.8911 9.20166L42.0258 15.1089H39.4785L40.4012 9.20166H43.8911Z" fill="white"/>
<path d="M27.3037 23.7984V9.20166H37.6733V12.3065H31.1146V14.9476H37.1318V18.0525H31.1146V20.6936H37.6533V23.7984H27.3037Z" fill="white"/>
<path d="M9.27221 23.7984L5 9.20166H9.25215L11.298 18.3347H11.4183L13.8052 9.20166H17.1748L19.5817 18.375H19.702L21.7479 9.20166H26L21.7278 23.7984H18.0573L15.5501 15.4517H15.4298L12.9226 23.7984H9.27221Z" fill="white"/>
</svg>
