<svg width="80" height="32" viewBox="0 0 80 32" fill="none" xmlns="http://www.w3.org/2000/svg">
<path d="M74.9582 16.4733C74.9582 21.3194 71.8615 23.9536 67.9203 23.9536C63.9388 23.9536 60.8622 21.2993 60.8622 16.4733C60.8622 11.6271 63.9388 8.99292 67.9203 8.99292C71.8615 8.99292 74.9582 11.6271 74.9582 16.4733ZM71.017 16.4733C71.017 13.7988 69.911 12.3309 67.9203 12.3309C65.9094 12.3309 64.8034 13.7988 64.8034 16.4733C64.8034 19.1477 65.9094 20.6156 67.9203 20.6156C69.911 20.6156 71.017 19.1477 71.017 16.4733Z" fill="white"/>
<path d="M55.0108 13.9798C54.7494 12.9342 53.8848 12.3309 52.5978 12.3309C50.5669 12.3309 49.3805 13.8592 49.3805 16.4532C49.3805 19.0673 50.4864 20.6156 52.5777 20.6156C54.3975 20.6156 55.3225 19.761 55.3527 18.4037H52.6581V15.6689H59.0526V17.6597C59.0526 21.621 56.338 23.9536 52.5375 23.9536C48.3147 23.9536 45.4392 21.0982 45.4392 16.4934C45.4392 11.7076 48.5962 8.99292 52.5174 8.99292C55.9358 8.99292 58.57 11.0641 58.8918 13.9798H55.0108Z" fill="white"/>
<path d="M27.1409 23.7526V9.19409H37.5369V12.2908H30.9615V14.925H36.994V18.0217H30.9615V20.6559H37.5168V23.7526H27.1409Z" fill="white"/>
<path d="M9.06301 23.7526L4.77991 9.19409H9.0429L11.094 18.3032H11.2146L13.6075 9.19409H16.9857L19.3988 18.3434H19.5194L21.5705 9.19409H25.8335L21.5504 23.7526H17.8705L15.357 15.4277H15.2363L12.7227 23.7526H9.06301Z" fill="white"/>
<circle cx="41.1822" cy="8.67687" r="1.83849" fill="#2563EB"/>
</svg>
