<svg width="48" height="48" viewBox="0 0 48 48" fill="none" xmlns="http://www.w3.org/2000/svg">
<rect width="48" height="48" rx="24" fill="#DBEAFE"/>
<path d="M33.7393 36.0038L20.356 31.0151C19.9598 30.8752 19.6052 30.6379 19.3248 30.325C19.0444 30.0121 18.8473 29.6337 18.7515 29.2246C18.6557 28.8156 18.6644 28.389 18.7767 27.9841C18.889 27.5793 19.1014 27.2092 19.3943 26.908L27.7889 18.5133C28.099 18.2227 28.4775 18.015 28.8892 17.9096C29.3009 17.8042 29.7326 17.8045 30.1442 17.9104C30.5558 18.0163 30.934 18.2244 31.2438 18.5154C31.5535 18.8065 31.7848 19.171 31.9161 19.5752L36.8847 32.9585C37.0228 33.3921 37.037 33.8556 36.9259 34.2968C36.8148 34.738 36.5827 35.1395 36.2558 35.456C35.9289 35.7725 35.5201 35.9915 35.0755 36.0882C34.6309 36.185 34.1682 36.1558 33.7393 36.0038V36.0038Z" stroke="#2563EB" stroke-width="2.5" stroke-linecap="round" stroke-linejoin="round"/>
<path d="M14.1055 23.8416C14.9951 23.3452 16.037 23.1953 17.0306 23.4209" stroke="#3B82F6" stroke-width="2.5" stroke-linecap="round" stroke-linejoin="round"/>
<path d="M18.6729 18.1324C18.1056 17.2771 17.8704 16.2439 18.0118 15.2273" stroke="#BFDBFE" stroke-width="2.5" stroke-linecap="round" stroke-linejoin="round"/>
<path d="M23.2813 11C22.5791 13.1511 22.6715 15.4827 23.5418 17.5714" stroke="#69B0FF" stroke-width="2.5" stroke-linecap="round" stroke-linejoin="round"/>
<path d="M12.0017 17.1311C12.555 17.1311 13.0035 16.6826 13.0035 16.1294C13.0035 15.5761 12.555 15.1276 12.0017 15.1276C11.4485 15.1276 11 15.5761 11 16.1294C11 16.6826 11.4485 17.1311 12.0017 17.1311Z" fill="#2563EB" stroke="#2563EB" stroke-width="2.5" stroke-linecap="round" stroke-linejoin="round"/>
</svg>
