<svg width="18" height="18" viewBox="0 0 18 18" fill="none" xmlns="http://www.w3.org/2000/svg">
<path d="M12.9333 8.26652C14.0839 8.26652 15.0166 7.33378 15.0166 6.18319C15.0166 5.03259 14.0839 4.09985 12.9333 4.09985C11.7827 4.09985 10.85 5.03259 10.85 6.18319C10.85 7.33378 11.7827 8.26652 12.9333 8.26652Z" fill="#878A92"/>
<path d="M17.1001 14.285H8.76672V13.359C8.76672 12.254 9.20571 11.1942 9.98711 10.4128C10.7685 9.63137 11.8283 9.19238 12.9334 9.19238C14.0385 9.19238 15.0983 9.63137 15.8797 10.4128C16.6611 11.1942 17.1001 12.254 17.1001 13.359V14.285Z" fill="#878A92"/>
<path d="M6.38585 7.67135C7.86518 7.67135 9.06442 6.47212 9.06442 4.99278C9.06442 3.51345 7.86518 2.31421 6.38585 2.31421C4.90651 2.31421 3.70728 3.51345 3.70728 4.99278C3.70728 6.47212 4.90651 7.67135 6.38585 7.67135Z" fill="#878A92"/>
<path d="M11.743 15.4094H1.02869V14.219C1.02869 12.7982 1.5931 11.4355 2.59776 10.4309C3.60242 9.42623 4.96503 8.86182 6.38583 8.86182C7.80663 8.86182 9.16924 9.42623 10.1739 10.4309C11.1786 11.4355 11.743 12.7982 11.743 14.219V15.4094Z" fill="#878A92" stroke="white" stroke-linecap="round" stroke-linejoin="round"/>
</svg>
