<svg width="40" height="40" viewBox="0 0 40 40" fill="none" xmlns="http://www.w3.org/2000/svg">
<path d="M6.43586 35.5955L33.2307 35.5955C34.576 35.5955 35.6666 34.5049 35.6666 33.1596L35.6666 6.36469C35.6666 5.01938 34.576 3.92879 33.2307 3.92879L6.43586 3.92879C5.09055 3.92879 3.99996 5.01938 3.99996 6.36469L3.99996 33.1596C3.99996 34.5049 5.09055 35.5955 6.43586 35.5955Z" fill="#E5E7EB" stroke="#E5E7EB" stroke-width="2" stroke-linecap="round" stroke-linejoin="round"/>
<path d="M11.2382 15C12.6189 15 13.7382 13.8807 13.7382 12.5C13.7382 11.1193 12.6189 10 11.2382 10C9.85745 10 8.73816 11.1193 8.73816 12.5C8.73816 13.8807 9.85745 15 11.2382 15Z" fill="#D1D5DB" stroke="#D1D5DB" stroke-width="2" stroke-linecap="round" stroke-linejoin="round"/>
<path opacity="0.7" fill-rule="evenodd" clip-rule="evenodd" d="M26.6723 19.5489C25.8825 18.345 24.1177 18.345 23.3279 19.5489L17.8091 27.9607L16.2484 25.6179C15.6547 24.7268 14.3454 24.7268 13.7517 25.6179L10.0581 31.1624C9.39403 32.1592 10.1087 33.494 11.3065 33.494H17.7186C17.7713 33.498 17.8247 33.5001 17.8789 33.5001H32.1212C33.7119 33.5001 34.6661 31.733 33.7934 30.403L26.6723 19.5489Z" fill="#9CA3AF"/>
</svg>
