<svg width="20" height="20" viewBox="0 0 20 20" fill="none" xmlns="http://www.w3.org/2000/svg">
<path d="M13.1442 10.8109L12.2083 9.875C12.3504 9.13354 12.1555 8.50106 11.6234 7.97756C11.0913 7.45406 10.453 7.25321 9.70833 7.375L8.77246 6.43912C8.96583 6.34937 9.16481 6.28473 9.3694 6.24521C9.57399 6.20568 9.78419 6.18591 10 6.18591C10.9455 6.18591 11.7481 6.51578 12.4078 7.1755C13.0676 7.83522 13.3974 8.63783 13.3974 9.58333C13.3974 9.79914 13.379 10.0093 13.3421 10.2139C13.3053 10.4185 13.2393 10.6175 13.1442 10.8109ZM15.7949 13.4038L14.875 12.5417C15.4028 12.1389 15.875 11.691 16.2917 11.1979C16.7083 10.7049 17.0556 10.1667 17.3333 9.58333C16.6389 8.18055 15.6354 7.06597 14.3229 6.23958C13.0104 5.41319 11.5694 5 10 5C9.59722 5 9.20486 5.02778 8.82292 5.08333C8.44097 5.13889 8.05556 5.22222 7.66667 5.33333L6.69554 4.36221C7.22544 4.1528 7.76577 3.99842 8.31652 3.89906C8.86726 3.7997 9.42842 3.75002 10 3.75002C11.7906 3.75002 13.4353 4.2153 14.9343 5.14585C16.4332 6.07641 17.586 7.33548 18.3926 8.92308C18.4482 9.02884 18.4885 9.13541 18.5136 9.24279C18.5387 9.35016 18.5513 9.46368 18.5513 9.58333C18.5513 9.70298 18.5408 9.8165 18.52 9.92387C18.4992 10.0312 18.461 10.1378 18.4054 10.2436C18.1105 10.8707 17.7403 11.4498 17.2948 11.9807C16.8493 12.5117 16.3493 12.9861 15.7949 13.4038ZM10 15.4166C8.24574 15.4166 6.63784 14.9479 5.17631 14.0104C3.71477 13.0729 2.55291 11.8381 1.69073 10.3061C1.62129 10.2003 1.57054 10.0855 1.5385 9.96154C1.50645 9.83761 1.49042 9.71154 1.49042 9.58333C1.49042 9.45512 1.50431 9.33119 1.53208 9.21154C1.55986 9.09189 1.60847 8.9749 1.67792 8.86058C1.98775 8.29434 2.33872 7.75508 2.73081 7.24279C3.12291 6.7305 3.57376 6.27137 4.08338 5.86539L2.20196 3.97114C2.08657 3.84721 2.02968 3.70005 2.03129 3.52964C2.03289 3.35924 2.09405 3.21368 2.21477 3.09296C2.33549 2.97223 2.48186 2.91187 2.65388 2.91187C2.82588 2.91187 2.97224 2.97223 3.09296 3.09296L16.907 16.907C17.0224 17.0224 17.0836 17.1653 17.0905 17.3357C17.0975 17.5061 17.0363 17.6559 16.907 17.7852C16.7863 17.9059 16.64 17.9663 16.4679 17.9663C16.2959 17.9663 16.1496 17.9059 16.0289 17.7852L13.0962 14.8782C12.6047 15.0683 12.0996 15.2056 11.5809 15.29C11.0622 15.3744 10.5353 15.4166 10 15.4166ZM4.96156 6.74356C4.47331 7.1207 4.03447 7.54725 3.64504 8.02323C3.25561 8.49919 2.92949 9.01922 2.66667 9.58333C3.36111 10.9861 4.36458 12.1007 5.67708 12.9271C6.98958 13.7535 8.43056 14.1667 10 14.1667C10.3579 14.1667 10.7102 14.1426 11.0569 14.0945C11.4036 14.0465 11.7479 13.9722 12.0898 13.8718L11.0353 12.7916C10.8665 12.8654 10.6979 12.9153 10.5296 12.9415C10.3614 12.9677 10.1848 12.9807 10 12.9807C9.0545 12.9807 8.25189 12.6509 7.59217 11.9912C6.93245 11.3314 6.60258 10.5288 6.60258 9.58333C6.60258 9.3985 6.61701 9.22195 6.64585 9.05369C6.6747 8.88541 6.72331 8.71687 6.79169 8.54806L4.96156 6.74356Z" fill="#9CA3AF"/>
</svg>
