<svg width="20" height="20" viewBox="0 0 20 20" fill="none" xmlns="http://www.w3.org/2000/svg">
<path d="M10.0019 12.9808C10.9461 12.9808 11.7481 12.6503 12.4078 11.9893C13.0676 11.3283 13.3974 10.5257 13.3974 9.58144C13.3974 8.6372 13.0669 7.83523 12.406 7.1755C11.745 6.51578 10.9424 6.18592 9.99811 6.18592C9.05387 6.18592 8.25189 6.5164 7.59217 7.17738C6.93245 7.83836 6.60259 8.64098 6.60259 9.58523C6.60259 10.5295 6.93307 11.3314 7.59405 11.9912C8.25503 12.6509 9.05765 12.9808 10.0019 12.9808ZM10 11.8333C9.37501 11.8333 8.84376 11.6146 8.40626 11.1771C7.96876 10.7396 7.75001 10.2083 7.75001 9.58334C7.75001 8.95834 7.96876 8.42709 8.40626 7.98959C8.84376 7.55209 9.37501 7.33334 10 7.33334C10.625 7.33334 11.1563 7.55209 11.5938 7.98959C12.0313 8.42709 12.25 8.95834 12.25 9.58334C12.25 10.2083 12.0313 10.7396 11.5938 11.1771C11.1563 11.6146 10.625 11.8333 10 11.8333ZM10 15.4166C8.24574 15.4166 6.64132 14.9487 5.18673 14.0128C3.73214 13.0769 2.57108 11.8456 1.70357 10.3189C1.63412 10.1992 1.58337 10.0787 1.55132 9.95713C1.51926 9.83559 1.50323 9.71085 1.50323 9.58292C1.50323 9.45499 1.51926 9.3304 1.55132 9.20915C1.58337 9.08788 1.63412 8.96743 1.70357 8.84777C2.57108 7.32106 3.73214 6.08977 5.18673 5.15388C6.64132 4.21797 8.24574 3.75002 10 3.75002C11.7543 3.75002 13.3587 4.21797 14.8133 5.15388C16.2679 6.08977 17.4289 7.32106 18.2964 8.84777C18.3659 8.96743 18.4166 9.08802 18.4487 9.20954C18.4807 9.33109 18.4968 9.45582 18.4968 9.58375C18.4968 9.71168 18.4807 9.83627 18.4487 9.95752C18.4166 10.0788 18.3659 10.1992 18.2964 10.3189C17.4289 11.8456 16.2679 13.0769 14.8133 14.0128C13.3587 14.9487 11.7543 15.4166 10 15.4166ZM10 14.1667C11.5695 14.1667 13.0104 13.7535 14.3229 12.9271C15.6354 12.1007 16.6389 10.9861 17.3333 9.58334C16.6389 8.18056 15.6354 7.06597 14.3229 6.23959C13.0104 5.4132 11.5695 5 10 5C8.43056 5 6.98959 5.4132 5.67709 6.23959C4.36459 7.06597 3.36112 8.18056 2.66667 9.58334C3.36112 10.9861 4.36459 12.1007 5.67709 12.9271C6.98959 13.7535 8.43056 14.1667 10 14.1667Z" fill="#9CA3AF"/>
</svg>
