<svg width="22" height="20" viewBox="0 0 22 20" fill="none" xmlns="http://www.w3.org/2000/svg">
<g id="Group">
<path id="Vector" d="M1.6665 4.6123H14.264" stroke="#222222" stroke-width="2" stroke-linecap="round" stroke-linejoin="round"/>
<path id="Vector_2" d="M17.2642 7.5C18.921 7.5 20.2642 6.15685 20.2642 4.5C20.2642 2.84315 18.921 1.5 17.2642 1.5C15.6073 1.5 14.2642 2.84315 14.2642 4.5C14.2642 6.15685 15.6073 7.5 17.2642 7.5Z" stroke="#222222" stroke-width="2" stroke-linecap="round" stroke-linejoin="round"/>
<path id="Vector_3" d="M20 15.5L13 15.5" stroke="#222222" stroke-width="2" stroke-linecap="round" stroke-linejoin="round"/>
<path id="Vector_4" d="M6.70549 15.5H1.6665" stroke="#222222" stroke-width="2" stroke-linecap="round" stroke-linejoin="round"/>
<path id="Vector_5" d="M9.70508 18.5C11.3619 18.5 12.7051 17.1569 12.7051 15.5C12.7051 13.8431 11.3619 12.5 9.70508 12.5C8.04822 12.5 6.70508 13.8431 6.70508 15.5C6.70508 17.1569 8.04822 18.5 9.70508 18.5Z" stroke="#222222" stroke-width="2" stroke-linecap="round" stroke-linejoin="round"/>
</g>
</svg>
