<svg width="24" height="24" viewBox="0 0 24 24" fill="none" xmlns="http://www.w3.org/2000/svg">
<path d="M10.5395 17.0417L13.2445 19.7343C13.4105 19.9044 13.618 20.0283 13.8465 20.0936C14.0751 20.1589 14.3167 20.1633 14.5475 20.1066C14.7797 20.0526 14.9941 19.9398 15.1701 19.779C15.3462 19.6182 15.4779 19.4148 15.5526 19.1884L19.9948 5.87389C20.0876 5.62442 20.1067 5.35357 20.05 5.09354C19.9932 4.83352 19.863 4.59525 19.6748 4.40705C19.4866 4.21886 19.2484 4.08866 18.9883 4.03194C18.7283 3.97521 18.4575 3.99434 18.208 4.08705L4.89353 8.52934C4.65932 8.60934 4.45072 8.75043 4.28929 8.93804C4.12786 9.12565 4.01946 9.35296 3.9753 9.59648C3.9297 9.81797 3.93985 10.0473 4.00483 10.2639C4.06981 10.4805 4.18758 10.6775 4.34755 10.8373L7.74752 14.2373L7.63584 18.5431L10.5395 17.0417Z" stroke="#9CA3AF" stroke-width="1.5" stroke-linecap="round" stroke-linejoin="round"/>
<path d="M19.5973 4.36035L7.74707 14.2376" stroke="#9CA3AF" stroke-width="1.5" stroke-linecap="round" stroke-linejoin="round"/>
</svg>
