<svg width="60" height="60" viewBox="0 0 60 60" fill="none" xmlns="http://www.w3.org/2000/svg">
<path d="M38.6688 7.63874C41.6093 8.77319 44.2975 10.4757 46.58 12.6491C48.8625 14.8224 50.6946 17.4241 51.9716 20.3055C53.2487 23.1869 53.9457 26.2916 54.0229 29.4424C54.1 32.5932 53.5559 35.7283 52.4214 38.6688C51.287 41.6093 49.5845 44.2975 47.4111 46.58C45.2377 48.8625 42.6361 50.6946 39.7546 51.9717C36.8732 53.2487 33.7685 53.9457 30.6177 54.0229C27.4669 54.1001 24.3318 53.5559 21.3913 52.4214C18.4509 51.287 15.7626 49.5845 13.4801 47.4111C11.1976 45.2377 9.36555 42.6361 8.0885 39.7547C6.81145 36.8733 6.11444 33.7685 6.03727 30.6177C5.96009 27.467 6.50427 24.3318 7.63872 21.3914C8.77318 18.4509 10.4757 15.7627 12.6491 13.4801C14.8224 11.1976 17.4241 9.36556 20.3055 8.08851C23.1869 6.81146 26.2916 6.11445 29.4424 6.03728C32.5932 5.96011 35.7283 6.50428 38.6688 7.63874L38.6688 7.63874Z" stroke="#DBEAFE" stroke-width="8"/>
<path d="M38.6688 7.63874C42.2024 9.00202 45.3632 11.1822 47.8927 14.0011C50.4222 16.8201 52.2487 20.1976 53.2228 23.8577" stroke="#3B82F6" stroke-width="8" stroke-linecap="round"/>
</svg>
