<svg width="16" height="15" viewBox="0 0 16 15" fill="none" xmlns="http://www.w3.org/2000/svg">
<g id="Group">
<path id="Vector" d="M5.40385 0.75H2.28846C1.71494 0.75 1.25 1.21494 1.25 1.78846V4.90385C1.25 5.47737 1.71494 5.94231 2.28846 5.94231H5.40385C5.97737 5.94231 6.44231 5.47737 6.44231 4.90385V1.78846C6.44231 1.21494 5.97737 0.75 5.40385 0.75Z" fill="#2563EB" stroke="#2563EB" stroke-width="1.25" stroke-linecap="round" stroke-linejoin="round"/>
<path id="Vector_2" d="M13.7115 0.75H10.5961C10.0226 0.75 9.55762 1.21494 9.55762 1.78846V4.90385C9.55762 5.47737 10.0226 5.94231 10.5961 5.94231H13.7115C14.285 5.94231 14.7499 5.47737 14.7499 4.90385V1.78846C14.7499 1.21494 14.285 0.75 13.7115 0.75Z" fill="#2563EB" stroke="#2563EB" stroke-width="1.25" stroke-linecap="round" stroke-linejoin="round"/>
<path id="Vector_3" d="M5.40385 9.05762H2.28846C1.71494 9.05762 1.25 9.52255 1.25 10.0961V13.2115C1.25 13.785 1.71494 14.2499 2.28846 14.2499H5.40385C5.97737 14.2499 6.44231 13.785 6.44231 13.2115V10.0961C6.44231 9.52255 5.97737 9.05762 5.40385 9.05762Z" fill="#2563EB" stroke="#2563EB" stroke-width="1.25" stroke-linecap="round" stroke-linejoin="round"/>
<path id="Vector_4" d="M13.7115 9.05762H10.5961C10.0226 9.05762 9.55762 9.52255 9.55762 10.0961V13.2115C9.55762 13.785 10.0226 14.2499 10.5961 14.2499H13.7115C14.285 14.2499 14.7499 13.785 14.7499 13.2115V10.0961C14.7499 9.52255 14.285 9.05762 13.7115 9.05762Z" fill="#2563EB" stroke="#2563EB" stroke-width="1.25" stroke-linecap="round" stroke-linejoin="round"/>
</g>
</svg>
