<svg width="36" height="36" viewBox="0 0 36 36" fill="none" xmlns="http://www.w3.org/2000/svg">
<g id="ic/star_36px">
<path id="Vector" d="M19.1737 6.57522L22.1051 12.4933C22.1717 12.6435 22.2766 12.7736 22.4093 12.8706C22.5419 12.9677 22.6976 13.0283 22.861 13.0464L29.3321 14.0051C29.5195 14.0291 29.6961 14.106 29.8414 14.2268C29.9867 14.3475 30.0947 14.5071 30.1527 14.6869C30.2107 14.8666 30.2163 15.0592 30.169 15.2421C30.1216 15.425 30.0232 15.5906 29.8852 15.7196L25.2208 20.3471C25.1018 20.4584 25.0124 20.5976 24.9609 20.7521C24.9094 20.9067 24.8973 21.0717 24.9258 21.2321L26.0504 27.7401C26.083 27.9271 26.0624 28.1195 25.991 28.2954C25.9197 28.4713 25.8003 28.6236 25.6467 28.735C25.493 28.8464 25.3111 28.9125 25.1218 28.9256C24.9324 28.9388 24.7432 28.8985 24.5755 28.8094L18.7497 25.7305C18.6005 25.6573 18.4365 25.6192 18.2703 25.6192C18.1041 25.6192 17.9402 25.6573 17.791 25.7305L11.9651 28.8094C11.7975 28.8985 11.6082 28.9388 11.4189 28.9256C11.2295 28.9125 11.0477 28.8464 10.894 28.735C10.7403 28.6236 10.621 28.4713 10.5496 28.2954C10.4782 28.1195 10.4576 27.9271 10.4902 27.7401L11.6148 21.1583C11.6433 20.9979 11.6313 20.833 11.5797 20.6784C11.5282 20.5238 11.4389 20.3846 11.3198 20.2734L6.60014 15.7196C6.46051 15.5871 6.36231 15.4169 6.31745 15.2296C6.27258 15.0424 6.28297 14.8462 6.34736 14.6647C6.41174 14.4833 6.52736 14.3244 6.68021 14.2073C6.83306 14.0902 7.01658 14.02 7.20854 14.0051L13.6797 13.0464C13.843 13.0283 13.9988 12.9677 14.1314 12.8706C14.264 12.7736 14.3689 12.6435 14.4356 12.4933L17.3669 6.57522C17.4468 6.40286 17.5742 6.25693 17.7343 6.15466C17.8944 6.05239 18.0804 5.99805 18.2703 5.99805C18.4603 5.99805 18.6463 6.05239 18.8063 6.15466C18.9664 6.25693 19.0939 6.40286 19.1737 6.57522Z" stroke="white" stroke-width="1.5" stroke-linecap="round" stroke-linejoin="round"/>
</g>
</svg>
