<svg width="24" height="24" viewBox="0 0 24 24" fill="none" xmlns="http://www.w3.org/2000/svg">
<g id="ic/star_24px">
<path id="Vector" d="M12.7825 4.38283L14.7367 8.3282C14.7812 8.42834 14.8511 8.51508 14.9395 8.57978C15.0279 8.64447 15.1318 8.68486 15.2406 8.69693L19.5547 9.33605C19.6797 9.35211 19.7974 9.40337 19.8943 9.48386C19.9912 9.56434 20.0631 9.67073 20.1018 9.79058C20.1404 9.91044 20.1442 10.0388 20.1126 10.1607C20.0811 10.2827 20.0155 10.3931 19.9235 10.4791L16.8139 13.5641C16.7345 13.6383 16.6749 13.7311 16.6406 13.8341C16.6063 13.9371 16.5982 14.0471 16.6172 14.1541L17.367 18.4928C17.3887 18.6174 17.375 18.7457 17.3274 18.8629C17.2798 18.9802 17.2002 19.0817 17.0978 19.156C16.9953 19.2303 16.8741 19.2743 16.7478 19.2831C16.6216 19.2919 16.4954 19.265 16.3837 19.2056L12.4998 17.153C12.4003 17.1042 12.291 17.0788 12.1802 17.0788C12.0694 17.0788 11.9601 17.1042 11.8607 17.153L7.97674 19.2056C7.865 19.265 7.73883 19.2919 7.61259 19.2831C7.48635 19.2743 7.36511 19.2303 7.26266 19.156C7.16021 19.0817 7.08066 18.9802 7.03307 18.8629C6.98548 18.7457 6.97176 18.6174 6.99347 18.4928L7.74321 14.1049C7.76221 13.998 7.75418 13.888 7.71983 13.7849C7.68548 13.6819 7.62592 13.5891 7.54656 13.5149L4.40009 10.4791C4.30701 10.3907 4.24154 10.2773 4.21163 10.1524C4.18172 10.0276 4.18865 9.89679 4.23157 9.77582C4.27449 9.65485 4.35158 9.54892 4.45347 9.47087C4.55537 9.39282 4.67772 9.34599 4.80569 9.33605L9.11979 8.69693C9.22868 8.68486 9.33252 8.64447 9.42093 8.57978C9.50935 8.51508 9.57927 8.42834 9.62372 8.3282L11.578 4.38283C11.6312 4.26792 11.7162 4.17063 11.8229 4.10245C11.9296 4.03427 12.0536 3.99805 12.1802 3.99805C12.3069 3.99805 12.4308 4.03427 12.5376 4.10245C12.6443 4.17063 12.7293 4.26792 12.7825 4.38283Z" fill="currentColor" stroke="currentColor" stroke-linecap="round" stroke-linejoin="round"/>
</g>
</svg>
