<svg width="24" height="24" viewBox="0 0 24 24" fill="none" xmlns="http://www.w3.org/2000/svg">
<path d="M5 21H19" stroke="currentColor" stroke-width="2" stroke-linecap="round" stroke-linejoin="round"/>
<path d="M11.1611 16.0032L7.00916 16.7505L7.70115 12.5432L17.0155 3.25655C17.1441 3.12683 17.2972 3.02387 17.4658 2.95361C17.6345 2.88334 17.8154 2.84717 17.9981 2.84717C18.1808 2.84717 18.3617 2.88334 18.5304 2.95361C18.699 3.02387 18.8521 3.12683 18.9807 3.25655L20.4478 4.72359C20.5775 4.85225 20.6805 5.00532 20.7507 5.17398C20.821 5.34263 20.8572 5.52352 20.8572 5.70623C20.8572 5.88893 20.821 6.06983 20.7507 6.23848C20.6805 6.40714 20.5775 6.56021 20.4478 6.68887L11.1611 16.0032Z" fill="currentColor" stroke="currentColor" stroke-linecap="round" stroke-linejoin="round"/>
</svg>
